<?xml version="1.0" encoding="UTF-8" standalone="no"?>
<!-- Created with Inkscape (http://www.inkscape.org/) -->

<svg
   xmlns:dc="http://purl.org/dc/elements/1.1/"
   xmlns:cc="http://creativecommons.org/ns#"
   xmlns:rdf="http://www.w3.org/1999/02/22-rdf-syntax-ns#"
   xmlns:svg="http://www.w3.org/2000/svg"
   xmlns="http://www.w3.org/2000/svg"
   xmlns:sodipodi="http://sodipodi.sourceforge.net/DTD/sodipodi-0.dtd"
   xmlns:inkscape="http://www.inkscape.org/namespaces/inkscape"
   width="210mm"
   height="297mm"
   viewBox="0 0 744.09448819 1052.3622047"
   id="svg5235"
   version="1.1"
   inkscape:version="0.91 r13725"
   sodipodi:docname="delete.svg">
  <defs
     id="defs5237" />
  <sodipodi:namedview
     id="base"
     pagecolor="#ffffff"
     bordercolor="#666666"
     borderopacity="1.0"
     inkscape:pageopacity="0.0"
     inkscape:pageshadow="2"
     inkscape:zoom="0.35"
     inkscape:cx="375"
     inkscape:cy="520"
     inkscape:document-units="px"
     inkscape:current-layer="Icon_Trash"
     showgrid="false"
     inkscape:window-width="1920"
     inkscape:window-height="1018"
     inkscape:window-x="-8"
     inkscape:window-y="-8"
     inkscape:window-maximized="1" />
  <metadata
     id="metadata5240">
    <rdf:RDF>
      <cc:Work
         rdf:about="">
        <dc:format>image/svg+xml</dc:format>
        <dc:type
           rdf:resource="http://purl.org/dc/dcmitype/StillImage" />
        <dc:title></dc:title>
      </cc:Work>
    </rdf:RDF>
  </metadata>
  <g
     inkscape:label="Capa 1"
     inkscape:groupmode="layer"
     id="layer1">
    <g
       id="Icon_Trash"
       transform="matrix(23.857143,0,0,24.287058,-5525,-5309.1799)">
      <rect
         id="rect3350"
         height="15.881991"
         width="2.1750345"
         y="234.7507"
         x="241.53845"
         style="fill:#1a1a1a" />
      <rect
         id="rect3352"
         height="15.881991"
         width="2.1750345"
         y="234.7507"
         x="245.88853"
         style="fill:#1a1a1a" />
      <rect
         id="rect3354"
         height="15.881991"
         width="2.1750345"
         y="234.7507"
         x="250.23859"
         style="fill:#1a1a1a" />
      <rect
         id="rect3356"
         height="1.9852489"
         width="28.27545"
         y="228.79495"
         x="232.83832"
         style="fill:#1a1a1a" />
      <path
         id="path3358"
         d="m 252.30488,229.78756 -2.06629,0 0,-1.98524 c 0,-0.59558 -0.54375,-1.0919 -1.19627,-1.0919 l -4.35006,0 c -0.65251,0 -1.19627,0.49632 -1.19627,1.0919 l 0,1.98524 -2.06629,0 0,-1.98524 c 0,-1.58821 1.41378,-2.87862 3.15381,-2.87862 l 4.35007,0 c 1.74003,0 3.15379,1.29041 3.15379,2.87862 l 0,1.98524 z"
         inkscape:connector-curvature="0"
         style="fill:#1a1a1a" />
      <path
         id="path3360"
         d="m 253.50115,256.58842 -13.05021,0 c -1.74003,0 -3.26255,-1.29041 -3.48005,-2.87861 l -1.95754,-23.82299 2.17504,-0.19852 1.95753,23.82299 c 0,0.59557 0.65251,1.09188 1.30502,1.09188 l 13.05021,0 c 0.65251,0 1.19627,-0.49631 1.30502,-1.09188 l 1.95753,-23.82299 2.17504,0.19852 -1.95753,23.82299 c -0.21751,1.5882 -1.74003,2.87861 -3.48006,2.87861 z"
         inkscape:connector-curvature="0"
         style="fill:#1a1a1a" />
    </g>
  </g>
</svg>
