<?xml version="1.0" encoding="UTF-8" standalone="no"?>
<!-- Created with Inkscape (http://www.inkscape.org/) -->

<svg
   xmlns:dc="http://purl.org/dc/elements/1.1/"
   xmlns:cc="http://creativecommons.org/ns#"
   xmlns:rdf="http://www.w3.org/1999/02/22-rdf-syntax-ns#"
   xmlns:svg="http://www.w3.org/2000/svg"
   xmlns="http://www.w3.org/2000/svg"
   xmlns:sodipodi="http://sodipodi.sourceforge.net/DTD/sodipodi-0.dtd"
   xmlns:inkscape="http://www.inkscape.org/namespaces/inkscape"
   width="210mm"
   height="297mm"
   viewBox="0 0 744.09448819 1052.3622047"
   id="svg5197"
   version="1.1"
   inkscape:version="0.91 r13725"
   sodipodi:docname="lapiz.svg">
  <defs
     id="defs5199" />
  <sodipodi:namedview
     id="base"
     pagecolor="#ffffff"
     bordercolor="#666666"
     borderopacity="1.0"
     inkscape:pageopacity="0.0"
     inkscape:pageshadow="2"
     inkscape:zoom="0.35"
     inkscape:cx="375"
     inkscape:cy="520"
     inkscape:document-units="px"
     inkscape:current-layer="layer1"
     showgrid="false"
     inkscape:window-width="1920"
     inkscape:window-height="1018"
     inkscape:window-x="-8"
     inkscape:window-y="-8"
     inkscape:window-maximized="1" />
  <metadata
     id="metadata5202">
    <rdf:RDF>
      <cc:Work
         rdf:about="">
        <dc:format>image/svg+xml</dc:format>
        <dc:type
           rdf:resource="http://purl.org/dc/dcmitype/StillImage" />
        <dc:title></dc:title>
      </cc:Work>
    </rdf:RDF>
  </metadata>
  <g
     inkscape:label="Capa 1"
     inkscape:groupmode="layer"
     id="layer1">
    <g
       id="Icon_Pencil"
       transform="matrix(25.129228,0,0,26.835866,-4504.1579,-10121.437)"
       style="fill:#1a1a1a">
      <path
         id="path3477"
         d="m 179.7,410.3 2.4,-9.8 14.8,-14.8 7.3,7.3 -14.8,14.8 -9.7,2.5 z m 4.1,-8.8 -1.6,6.2 6.2,-1.6 13.2,-13.2 -4.7,-4.7 -13.1,13.3 z"
         inkscape:connector-curvature="0"
         style="fill:#1a1a1a" />
      <path
         id="path3479"
         d="m 187.9,407.3 c -0.6,-2.5 -2.6,-4.5 -5.1,-5.1 l 0.5,-1.8 c 3.2,0.8 5.7,3.3 6.5,6.5 l -1.9,0.4 z"
         inkscape:connector-curvature="0"
         style="fill:#1a1a1a" />
      <rect
         id="rect3481"
         height="1.9"
         width="18.4"
         transform="matrix(0.7071,-0.7071,0.7071,0.7071,-223.693,252.9573)"
         y="395.60001"
         x="184.3"
         style="fill:#1a1a1a" />
      <path
         id="path3483"
         d="m 181,409 2.9,-0.7 c -0.3,-1.1 -1.1,-1.9 -2.2,-2.2 L 181,409 Z"
         inkscape:connector-curvature="0"
         style="fill:#1a1a1a" />
      <path
         id="path3485"
         d="m 205,392.3 -7.3,-7.3 2.9,-2.9 0.5,0.1 c 3.5,0.5 6.3,3.3 6.8,6.8 l 0.1,0.5 -3,2.8 z m -4.7,-7.3 4.7,4.7 0.9,-0.9 c -0.5,-2.3 -2.3,-4.2 -4.7,-4.7 l -0.9,0.9 z"
         inkscape:connector-curvature="0"
         style="fill:#1a1a1a" />
    </g>
  </g>
</svg>
