<?xml version="1.0" encoding="UTF-8" standalone="no"?>
<!-- Created with Inkscape (http://www.inkscape.org/) -->

<svg
   xmlns:dc="http://purl.org/dc/elements/1.1/"
   xmlns:cc="http://creativecommons.org/ns#"
   xmlns:rdf="http://www.w3.org/1999/02/22-rdf-syntax-ns#"
   xmlns:svg="http://www.w3.org/2000/svg"
   xmlns="http://www.w3.org/2000/svg"
   xmlns:sodipodi="http://sodipodi.sourceforge.net/DTD/sodipodi-0.dtd"
   xmlns:inkscape="http://www.inkscape.org/namespaces/inkscape"
   width="210mm"
   height="297mm"
   viewBox="0 0 744.09448819 1052.3622047"
   id="svg5174"
   version="1.1"
   inkscape:version="0.91 r13725"
   sodipodi:docname="git.svg">
  <defs
     id="defs5176" />
  <sodipodi:namedview
     id="base"
     pagecolor="#ffffff"
     bordercolor="#666666"
     borderopacity="1.0"
     inkscape:pageopacity="0.0"
     inkscape:pageshadow="2"
     inkscape:zoom="0.49497475"
     inkscape:cx="-114.35978"
     inkscape:cy="726.28039"
     inkscape:document-units="px"
     inkscape:current-layer="layer1"
     showgrid="false"
     inkscape:window-width="1920"
     inkscape:window-height="1018"
     inkscape:window-x="-8"
     inkscape:window-y="-8"
     inkscape:window-maximized="1" />
  <metadata
     id="metadata5179">
    <rdf:RDF>
      <cc:Work
         rdf:about="">
        <dc:format>image/svg+xml</dc:format>
        <dc:type
           rdf:resource="http://purl.org/dc/dcmitype/StillImage" />
        <dc:title></dc:title>
      </cc:Work>
    </rdf:RDF>
  </metadata>
  <g
     inkscape:label="Capa 1"
     inkscape:groupmode="layer"
     id="layer1">
    <path
       d="m 354.5675,187.84646 c -152.70798,0 -275.978615,123.38047 -275.978615,276.22489 0,121.53892 79.113935,224.66309 189.505245,261.49299 14.71902,1.84172 18.39855,-5.52442 18.39855,-12.89036 0,-7.36612 0,-23.93954 0,-47.87911 -77.27391,16.57362 -93.8326,-36.8299 -93.8326,-36.8299 -12.87899,-31.30551 -31.27756,-40.51281 -31.27756,-40.51281 -25.75795,-16.5736 1.83988,-16.5736 1.83988,-16.5736 27.59782,1.84136 42.31667,27.62227 42.31667,27.62227 23.91827,42.35467 64.39492,29.46414 80.95361,22.09801 1.83985,-18.41496 9.19946,-29.46397 18.39873,-36.82992 -60.71522,-7.36612 -125.11032,-31.30548 -125.11032,-136.27099 0,-29.46379 11.03913,-55.24505 27.59801,-73.66001 -3.6799,-7.36594 -12.87917,-34.98857 1.83967,-73.66 0,0 23.91831,-7.36595 75.43424,27.6226 22.07827,-5.52459 45.99638,-9.20765 69.91449,-9.20765 23.91829,0 47.83641,3.68306 69.91466,9.20765 53.3558,-34.98855 75.43426,-27.6226 75.43426,-27.6226 14.71883,38.67143 5.51955,66.29406 1.83966,73.66 18.39855,18.41496 27.59799,44.19622 27.59799,73.66001 0,106.80704 -64.3951,128.90487 -125.11048,136.27099 9.19945,9.20748 18.39872,25.78092 18.39872,51.56218 0,36.82974 0,66.29387 0,75.50135 0,7.36595 5.51957,16.57361 18.39854,12.89038 C 551.43235,686.8929 628.70626,583.76892 628.70626,462.22982 630.54629,311.22693 507.27565,187.84646 354.5675,187.84646 Z"
       id="Icon_GitHub"
       inkscape:connector-curvature="0"
       style="clip-rule:evenodd;fill:#000000;fill-opacity:1;fill-rule:evenodd" />
  </g>
</svg>
